<?xml version="1.0" standalone="no"?>
<!DOCTYPE svg PUBLIC "-//W3C//DTD SVG 20010904//EN"
 "http://www.w3.org/TR/2001/REC-SVG-20010904/DTD/svg10.dtd">
<svg version="1.0" xmlns="http://www.w3.org/2000/svg"
 width="2246.000000pt" height="454.000000pt" viewBox="0 0 2246.000000 454.000000"
 preserveAspectRatio="xMidYMid meet">
<g transform="translate(0.000000,454.000000) scale(0.100000,-0.100000)"
fill="#FFFFFF" stroke="none">
<path d="M2530 4423 c0 -41 63 -142 156 -248 111 -126 174 -218 199 -290 26
-71 24 -235 -4 -400 -42 -242 -38 -404 11 -564 29 -95 76 -184 187 -355 143
-220 158 -255 201 -469 10 -49 14 -56 26 -46 45 37 169 319 211 478 24 91 26
112 31 429 l4 333 -37 107 c-50 143 -143 336 -209 436 -30 44 -105 136 -166
204 -62 68 -110 125 -107 128 9 9 163 -120 262 -220 147 -149 249 -305 329
-502 84 -212 88 -231 93 -494 6 -274 -4 -349 -68 -545 -140 -433 -421 -743
-794 -878 -100 -36 -105 -38 -105 -46 0 -10 46 -31 68 -31 9 0 75 29 147 65
258 128 458 193 775 253 133 25 216 56 258 98 38 38 40 65 17 234 l-16 111 46
51 c25 27 45 59 45 70 0 11 -13 37 -30 58 l-29 37 37 24 c46 30 51 59 23 134
-43 114 -20 174 89 236 36 20 72 48 80 62 21 37 37 12 -258 400 l-82 107 6
153 6 152 -30 46 c-54 83 -310 297 -489 408 -249 154 -574 272 -795 288 -83 6
-88 5 -88 -14z"/>
<path d="M4763 2818 c3 -1442 5 -1633 20 -1713 35 -193 108 -338 259 -508 117
-132 310 -252 523 -323 335 -112 836 -142 1228 -74 488 85 847 304 1016 622
64 119 92 223 101 378 5 74 9 834 10 1688 l0 1552 -545 0 -545 0 0 -1495 0
-1494 -28 -85 c-72 -213 -182 -294 -412 -304 -135 -5 -204 7 -289 49 -108 54
-180 157 -223 321 l-22 83 -3 1463 -4 1462 -545 0 -545 0 4 -1622z"/>
<path d="M8320 2340 l0 -2100 540 0 540 0 2 878 3 877 425 0 425 0 3 -877 2
-878 545 0 545 0 0 2100 0 2100 -545 0 -545 0 0 -770 0 -770 -430 0 -430 0 0
770 0 770 -540 0 -540 0 0 -2100z"/>
<path d="M11740 2340 l0 -2100 520 0 520 0 -1 393 c0 677 -16 1418 -33 1591
-9 87 -15 161 -13 162 2 2 38 -84 81 -192 99 -252 207 -479 536 -1124 147
-289 302 -594 344 -677 l77 -153 565 0 564 0 -2 2097 -3 2098 -517 3 -518 2 1
-522 c0 -288 4 -773 8 -1078 5 -305 7 -556 6 -557 0 -1 -30 71 -65 160 -81
207 -292 626 -699 1390 l-324 607 -524 0 -523 0 0 -2100z"/>
<path d="M20155 4371 c-77 -14 -90 -19 -90 -36 0 -14 9 -21 34 -26 18 -4 43
-17 55 -28 21 -21 21 -30 24 -374 2 -193 0 -366 -3 -383 -8 -46 -27 -66 -71
-73 -26 -4 -40 -12 -42 -24 -3 -16 11 -17 168 -17 155 0 171 2 168 17 -2 9
-18 21 -36 25 -41 11 -47 28 -56 148 -10 132 4 190 55 233 21 19 57 39 80 46
35 11 44 10 72 -6 18 -10 42 -39 55 -63 22 -42 23 -54 20 -177 -5 -140 -18
-183 -57 -183 -30 0 -51 -11 -51 -26 0 -11 32 -14 175 -14 148 0 175 2 175 15
0 9 -17 19 -44 26 -32 8 -47 18 -56 37 -7 15 -16 98 -21 185 -9 172 -20 209
-71 252 -72 61 -181 55 -280 -15 l-58 -41 0 261 0 260 -27 -1 c-16 -1 -68 -9
-118 -18z"/>
<path d="M21592 4372 c-68 -25 -120 -67 -150 -123 -34 -64 -27 -152 21 -253
l35 -74 -58 -45 c-84 -65 -113 -130 -109 -235 3 -66 9 -86 34 -128 52 -84 155
-134 274 -134 86 0 128 13 192 56 l51 36 27 -21 c109 -89 232 -92 318 -9 30
29 32 33 17 49 -15 17 -18 16 -56 -12 -23 -16 -52 -29 -66 -29 -38 0 -103 35
-145 78 l-38 39 22 108 c27 127 43 150 114 168 33 8 51 18 53 30 3 16 -9 17
-146 17 -82 0 -164 -3 -181 -6 -48 -10 -38 -31 19 -39 71 -10 94 -40 86 -116
-11 -113 -13 -113 -101 -13 -43 49 -98 116 -122 148 l-44 59 103 67 c57 36
115 81 130 98 56 67 57 166 2 223 -65 67 -188 94 -282 61z m171 -82 c50 -39
56 -113 15 -172 -24 -34 -148 -128 -170 -128 -24 0 -59 100 -59 171 -1 102 42
148 137 149 37 0 59 -6 77 -20z m-141 -527 c40 -49 104 -122 142 -163 l69 -74
-34 -28 c-70 -58 -188 -64 -261 -12 -107 75 -117 221 -24 332 15 17 29 32 31
32 2 0 37 -39 77 -87z"/>
<path d="M15375 4360 c-11 -18 13 -37 54 -44 21 -3 49 -14 62 -25 l24 -19 0
-387 0 -387 -28 -24 c-15 -13 -39 -24 -52 -24 -34 0 -55 -10 -55 -26 0 -12 38
-14 215 -14 177 0 215 2 215 14 0 16 -21 26 -58 26 -39 1 -72 30 -82 75 -5 22
-10 97 -10 168 l0 127 34 0 c33 0 40 -8 183 -202 l150 -203 142 -3 c127 -2
142 -1 139 14 -2 9 -20 22 -41 29 -79 27 -150 81 -241 181 -129 142 -161 183
-144 188 7 3 37 12 66 21 69 22 130 69 159 124 18 35 23 60 23 120 -1 124 -41
185 -159 239 -46 21 -76 26 -200 33 -212 11 -389 11 -396 -1z m454 -70 c103
-19 154 -86 154 -201 0 -79 -28 -138 -83 -172 -28 -18 -54 -22 -137 -25 l-103
-4 0 206 0 206 59 0 c32 0 82 -4 110 -10z"/>
<path d="M1653 3953 c-17 -10 -62 -45 -99 -78 l-68 -60 -92 0 c-101 0 -119 -8
-132 -59 l-9 -31 -70 3 -71 4 -41 -56 c-23 -31 -52 -58 -64 -61 -13 -4 -46 3
-75 14 -65 26 -123 27 -145 3 -9 -9 -53 -87 -97 -172 -121 -230 -148 -264
-306 -382 -74 -55 -146 -115 -160 -133 -38 -50 -60 -118 -91 -277 -27 -136
-28 -157 -28 -423 0 -310 4 -339 89 -632 44 -153 65 -198 91 -198 37 0 92 99
155 279 106 304 173 369 506 499 232 91 313 138 430 255 94 93 144 171 253
393 85 175 95 192 168 266 43 44 98 95 123 115 25 20 41 40 37 44 -15 16 -253
5 -365 -17 -245 -47 -522 -163 -687 -286 -107 -81 -281 -251 -352 -346 -93
-124 -173 -296 -244 -532 l-40 -130 6 92 c12 231 104 492 248 711 216 328 558
555 965 643 123 26 390 36 514 20 241 -32 439 -123 641 -295 l77 -67 0 41 c0
50 -9 59 -152 152 -203 133 -359 273 -568 512 -126 143 -197 197 -267 203 -33
2 -58 -2 -80 -14z"/>
<path d="M16600 3956 c-84 -22 -157 -82 -199 -161 -28 -53 -29 -191 -2 -250
69 -149 267 -209 426 -128 79 41 100 63 81 88 -13 18 -16 18 -77 -15 -83 -44
-162 -47 -227 -10 -58 33 -83 77 -89 154 l-5 63 38 6 c22 4 108 7 192 7 l152
0 0 60 c0 35 -7 74 -15 91 -41 78 -172 123 -275 95z m124 -77 c29 -14 62 -70
53 -93 -6 -14 -22 -16 -124 -14 -139 4 -149 12 -84 77 36 36 47 41 86 41 24 0
55 -5 69 -11z"/>
<path d="M17157 3956 c-136 -49 -143 -203 -14 -289 29 -18 78 -50 110 -71 80
-51 93 -94 39 -136 -51 -41 -126 -16 -182 61 -16 23 -30 53 -30 66 0 16 -6 23
-20 23 -19 0 -20 -7 -20 -121 0 -109 2 -120 18 -117 9 2 18 13 20 26 4 27 17
28 73 2 87 -39 203 -15 251 52 29 42 35 115 13 162 -20 42 -61 76 -162 135
-70 40 -103 72 -103 98 0 27 39 53 80 53 48 0 106 -45 118 -94 5 -17 16 -32
25 -34 15 -3 17 8 17 97 0 82 -3 101 -15 101 -7 0 -18 -7 -23 -16 -8 -14 -14
-14 -69 0 -72 19 -77 19 -126 2z"/>
<path d="M17780 3956 c-94 -24 -188 -114 -211 -200 -16 -59 -6 -173 19 -222
28 -55 102 -119 159 -138 104 -36 240 -11 319 58 36 32 38 36 23 51 -15 15
-20 14 -73 -14 -31 -16 -76 -33 -100 -36 -124 -19 -226 74 -226 206 0 36 1 36
46 43 26 3 114 6 195 6 l149 0 0 48 c-1 87 -56 167 -132 190 -57 17 -121 21
-168 8z m151 -98 c21 -21 29 -39 27 -57 l-3 -26 -114 -3 c-65 -1 -119 2 -124
7 -13 13 22 67 59 92 18 12 47 19 77 19 42 0 53 -5 78 -32z"/>
<path d="M18393 3959 c-57 -7 -117 -39 -134 -71 -15 -27 -14 -74 1 -93 17 -20
63 -19 82 3 8 9 18 29 22 44 9 39 46 60 97 56 52 -4 79 -35 82 -97 l2 -44
-100 -32 c-123 -39 -154 -54 -193 -99 -39 -45 -50 -97 -31 -150 21 -60 57 -81
137 -81 66 0 82 5 158 50 l31 19 29 -33 c39 -43 86 -50 148 -22 35 15 47 25
44 38 -3 14 -12 17 -40 15 -51 -4 -58 14 -59 145 0 59 -4 143 -8 186 -8 70
-12 82 -42 113 -48 49 -123 67 -226 53z m152 -350 l0 -74 -49 -32 c-57 -39
-100 -42 -133 -11 -33 31 -30 71 10 113 30 34 140 88 162 81 6 -1 10 -36 10
-77z"/>
<path d="M18963 3947 c-84 -15 -103 -22 -103 -36 0 -12 13 -22 40 -30 22 -6
47 -22 56 -35 18 -29 30 -204 20 -289 -9 -67 -29 -96 -76 -106 -21 -4 -36 -14
-38 -24 -3 -16 12 -17 177 -17 99 0 182 4 185 9 8 13 -15 29 -48 33 -18 2 -37
14 -50 31 -19 26 -21 42 -21 160 0 125 1 134 27 177 45 77 113 95 133 34 15
-45 34 -64 65 -64 57 0 81 80 39 133 -46 59 -140 55 -224 -8 -52 -40 -55 -41
-55 -17 -1 9 -6 29 -13 43 l-12 26 -102 -20z"/>
<path d="M19700 3957 c-90 -25 -165 -90 -203 -175 -16 -37 -19 -61 -15 -141 3
-83 8 -102 31 -139 33 -51 96 -98 151 -113 23 -6 75 -9 116 -7 82 5 156 35
198 81 21 22 22 26 7 41 -15 14 -20 13 -69 -14 -62 -36 -130 -47 -179 -31 -47
16 -103 79 -118 133 -23 86 6 211 62 270 32 34 42 39 75 36 33 -3 40 -7 47
-33 20 -68 30 -80 74 -83 36 -3 44 1 59 22 34 53 -12 136 -83 150 -72 13 -112
14 -153 3z"/>
<path d="M15370 2792 c0 -16 25 -32 51 -32 47 0 76 -17 88 -51 7 -21 11 -149
11 -381 0 -427 3 -415 -102 -433 -21 -3 -38 -12 -38 -19 0 -22 195 -33 354
-20 88 8 95 23 21 41 -27 7 -55 19 -63 26 -26 27 -32 94 -32 407 0 173 5 333
10 354 12 52 31 69 87 76 35 4 49 10 51 23 3 16 -12 17 -217 17 -122 0 -221
-4 -221 -8z"/>
<path d="M20350 2703 c-76 -28 -60 -143 20 -143 56 0 93 86 53 122 -22 19 -53
28 -73 21z"/>
<path d="M19832 2517 c-15 -59 -50 -108 -95 -132 -51 -28 -50 -55 3 -55 l40 0
0 -147 c1 -207 11 -278 46 -314 63 -66 179 -54 253 25 23 24 23 28 9 42 -15
15 -19 14 -54 -10 -51 -34 -88 -34 -111 1 -15 23 -19 56 -21 215 l-4 188 71 0
c69 0 71 1 71 25 0 24 -2 25 -70 25 l-70 0 0 90 0 90 -29 0 c-25 0 -30 -5 -39
-43z"/>
<path d="M16006 2394 c-38 -7 -74 -18 -79 -23 -17 -17 1 -41 31 -41 18 0 38
-10 53 -26 23 -24 24 -33 27 -173 5 -183 -4 -212 -69 -232 -27 -9 -45 -21 -47
-31 -3 -16 8 -18 125 -17 206 1 280 19 190 44 -20 6 -41 15 -47 21 -15 15 -33
170 -27 236 9 100 75 168 172 176 44 4 55 0 83 -23 42 -35 52 -77 52 -213 0
-133 -14 -178 -57 -187 -42 -9 -73 -23 -73 -34 0 -14 178 -24 285 -16 70 5 95
10 95 20 0 8 -16 17 -37 21 -74 13 -78 24 -92 237 -11 165 -31 218 -96 254
-81 46 -240 21 -299 -46 -27 -30 -32 -27 -45 24 -11 42 -13 45 -44 44 -17 0
-63 -7 -101 -15z"/>
<path d="M16899 2396 c-79 -18 -89 -23 -89 -46 0 -16 7 -20 30 -20 55 0 77
-34 85 -135 10 -115 1 -229 -20 -261 -17 -26 -21 -28 -67 -38 -19 -4 -28 -13
-28 -26 0 -19 7 -20 108 -20 151 0 242 10 242 26 0 7 -16 16 -36 20 -55 10
-67 38 -72 170 -5 131 -2 151 35 195 51 61 143 85 203 54 52 -27 63 -63 64
-217 0 -162 -10 -187 -82 -201 -25 -5 -42 -14 -42 -22 0 -10 26 -15 95 -20
104 -8 285 2 285 15 0 13 -20 23 -60 30 -50 8 -61 38 -71 202 -10 162 -20 205
-56 249 -36 43 -80 59 -155 59 -76 -1 -123 -17 -177 -59 -29 -23 -42 -29 -45
-19 -3 7 -8 27 -13 43 -8 25 -15 30 -44 32 -19 1 -59 -4 -90 -11z"/>
<path d="M17930 2401 c-94 -31 -191 -120 -211 -194 -15 -55 -7 -173 15 -214
27 -53 85 -103 154 -136 56 -26 77 -31 143 -30 65 0 88 5 141 30 115 55 169
131 176 246 5 85 -15 144 -72 205 -64 70 -124 95 -231 99 -49 1 -101 -1 -115
-6z m191 -84 c94 -63 123 -211 65 -328 -33 -65 -83 -91 -166 -87 -120 6 -174
75 -173 221 1 141 64 216 184 217 42 0 65 -6 90 -23z"/>
<path d="M19192 2385 c-40 -19 -56 -33 -67 -59 -19 -45 -19 -61 1 -80 33 -34
104 -8 104 38 0 9 11 28 25 41 28 29 88 34 122 10 22 -15 50 -106 38 -124 -3
-6 -32 -18 -63 -26 -148 -41 -216 -78 -253 -139 -39 -64 -15 -161 48 -191 57
-27 148 -17 213 23 60 38 67 39 75 12 14 -44 95 -63 159 -36 42 18 52 34 33
53 -12 12 -19 13 -37 3 -16 -9 -25 -9 -33 -1 -14 14 -25 132 -26 277 -1 98 -4
115 -24 145 -53 80 -204 106 -315 54z m226 -329 c3 -75 1 -78 -70 -116 -51
-27 -102 -26 -122 2 -24 33 -19 72 11 109 31 37 116 79 153 76 24 -2 25 -6 28
-71z"/>
<path d="M20293 2391 c-51 -9 -95 -20 -99 -24 -13 -13 6 -37 31 -37 64 0 89
-73 83 -245 -5 -147 -15 -171 -75 -186 -33 -9 -43 -16 -43 -32 0 -19 4 -20
180 -15 100 3 184 8 187 12 11 10 -13 28 -48 35 -18 4 -41 18 -52 34 -19 24
-21 48 -28 249 -4 123 -8 224 -8 226 -2 4 -37 0 -128 -17z"/>
<path d="M20854 2390 c-64 -25 -138 -89 -167 -144 -31 -59 -31 -193 0 -252 79
-148 283 -210 444 -135 115 54 169 137 169 260 -1 122 -50 200 -163 258 -72
37 -207 43 -283 13z m222 -75 c61 -36 89 -97 89 -195 0 -60 -5 -85 -25 -124
-34 -68 -66 -89 -143 -94 -90 -6 -140 20 -173 91 -41 90 -30 230 24 291 55 62
152 75 228 31z"/>
<path d="M21541 2394 c-67 -14 -99 -34 -87 -53 4 -6 18 -11 31 -11 73 0 88
-37 89 -215 0 -168 -9 -195 -76 -216 -26 -8 -43 -20 -43 -29 0 -18 120 -25
263 -15 102 8 114 19 44 43 -36 12 -43 19 -52 52 -18 66 -16 240 2 275 66 123
244 141 278 28 7 -23 10 -91 8 -174 -3 -156 -10 -172 -78 -183 -25 -4 -40 -12
-40 -20 0 -11 24 -16 94 -21 124 -10 276 2 276 21 0 8 -16 16 -41 20 -62 10
-69 29 -84 216 -13 170 -25 217 -66 255 -35 32 -73 43 -147 43 -74 0 -126 -19
-180 -65 -18 -15 -34 -26 -36 -24 -1 2 -8 23 -15 47 -11 38 -14 42 -44 41 -18
0 -61 -7 -96 -15z"/>
<path d="M18410 2370 c0 -6 17 -20 37 -32 31 -19 46 -43 108 -172 39 -83 87
-186 106 -229 41 -93 62 -122 81 -114 8 3 45 76 83 164 127 298 143 328 182
349 20 11 37 24 37 29 1 13 -204 19 -217 6 -6 -6 2 -15 22 -25 17 -9 31 -22
31 -28 0 -16 -89 -239 -107 -267 l-16 -25 -20 40 c-35 68 -97 226 -97 248 0
15 10 25 30 33 64 24 33 33 -115 33 -93 0 -145 -4 -145 -10z"/>
<path d="M1342 2243 c-29 -11 -41 -65 -57 -254 -30 -368 -63 -528 -176 -878
-44 -135 -58 -191 -54 -213 9 -37 85 -118 111 -118 33 0 109 -55 134 -96 33
-56 61 -84 82 -84 9 0 32 -16 49 -35 22 -23 41 -35 59 -35 75 0 107 -34 125
-133 4 -21 16 -48 26 -62 l20 -24 242 6 242 6 132 -75 c181 -103 246 -123 393
-123 135 1 222 21 395 91 331 136 589 311 826 562 142 151 159 194 81 207 -46
7 -84 3 -277 -32 -174 -31 -307 -29 -398 6 -71 28 -175 97 -287 192 -161 136
-304 216 -453 255 -49 13 -121 15 -396 13 l-336 -2 -119 42 c-66 22 -122 38
-125 35 -16 -16 118 -216 221 -329 253 -278 562 -474 853 -541 68 -16 122 -19
350 -19 l270 0 128 34 c71 18 131 30 134 27 8 -7 -121 -67 -207 -96 -166 -56
-443 -86 -642 -70 -267 22 -524 126 -751 304 -103 80 -265 248 -339 352 -232
326 -291 590 -231 1052 5 41 2 46 -25 35z"/>
<path d="M15801 1275 c-251 -70 -399 -304 -362 -570 49 -356 464 -546 731
-335 21 16 42 30 48 30 5 0 19 -16 31 -35 13 -22 28 -35 41 -35 19 0 20 6 20
176 0 174 0 175 -22 172 -16 -2 -26 -16 -38 -53 -41 -121 -105 -201 -193 -244
-41 -20 -59 -22 -146 -19 -96 3 -100 4 -155 42 -104 71 -156 181 -164 346 -5
122 7 191 47 276 37 78 73 119 135 154 46 27 60 30 144 30 103 0 140 -11 204
-62 50 -39 89 -99 124 -189 19 -52 30 -69 45 -69 18 0 19 9 19 175 0 169 -1
175 -20 175 -13 0 -28 -13 -41 -35 -12 -19 -25 -35 -31 -35 -5 0 -26 13 -46
30 -20 16 -64 41 -97 56 -74 34 -191 42 -274 19z"/>
<path d="M16713 856 c-145 -47 -233 -169 -220 -307 22 -249 355 -357 550 -179
32 29 62 68 72 93 25 60 24 169 -2 227 -24 55 -98 124 -161 151 -60 27 -181
34 -239 15z m156 -66 c114 -33 167 -209 102 -342 -31 -65 -78 -93 -156 -93
-82 0 -122 24 -158 95 -26 50 -28 63 -25 135 5 105 33 160 98 193 48 24 86 27
139 12z"/>
<path d="M17405 854 c-112 -22 -115 -23 -115 -44 0 -15 7 -20 26 -20 15 0 37
-12 54 -28 25 -25 29 -38 35 -117 9 -102 2 -209 -16 -247 -10 -24 -26 -34 -81
-52 -10 -3 -18 -12 -18 -21 0 -13 23 -15 183 -13 153 3 182 5 182 18 0 9 -14
17 -37 21 -48 7 -65 23 -78 68 -13 47 -13 216 0 263 14 47 51 92 91 109 29 12
33 11 50 -10 11 -13 19 -31 19 -42 0 -20 36 -49 62 -49 28 0 58 37 58 70 0 92
-95 137 -195 91 -22 -10 -51 -30 -64 -45 -14 -14 -27 -26 -31 -26 -3 0 -11 20
-18 45 -7 25 -18 45 -24 44 -7 0 -44 -7 -83 -15z"/>
<path d="M18075 842 c-74 -36 -150 -116 -166 -175 -6 -23 -9 -77 -7 -119 4
-63 10 -86 34 -125 60 -96 171 -151 287 -140 63 6 170 51 202 87 17 19 17 21
1 39 -17 19 -19 19 -68 -12 -40 -25 -64 -32 -118 -35 -131 -8 -208 66 -210
201 l0 47 190 0 190 0 6 26 c4 14 1 50 -5 78 -20 89 -95 144 -209 152 -59 5
-74 2 -127 -24z m159 -56 c61 -25 89 -97 44 -110 -30 -8 -143 -7 -190 0 -21 4
-38 12 -38 20 0 20 52 76 85 90 39 17 58 17 99 0z"/>
<path d="M18665 856 c-37 -16 -82 -67 -91 -102 -10 -41 4 -95 34 -133 16 -20
73 -63 127 -96 110 -67 130 -95 100 -141 -47 -73 -164 -41 -213 58 -11 23 -23
51 -26 61 -3 9 -12 17 -21 17 -13 0 -15 -19 -15 -120 0 -113 1 -120 20 -120
13 0 20 7 20 19 0 30 11 31 70 5 89 -38 170 -27 231 30 37 35 49 64 49 117 0
73 -37 118 -155 189 -92 55 -115 78 -115 111 0 33 18 48 62 55 58 9 106 -34
132 -118 3 -10 12 -18 21 -18 12 0 15 17 15 100 0 81 -3 100 -15 100 -7 0 -18
-7 -22 -15 -7 -13 -14 -13 -57 0 -60 18 -111 19 -151 1z"/>
</g>
</svg>
