<!-- Purchased by Hyeeun Mok from Nounproject on 2021.02.02 -->
<svg version="1.0" xmlns="http://www.w3.org/2000/svg"
 width="536.000000pt" height="488.000000pt" viewBox="0 0 536.000000 488.000000"
 preserveAspectRatio="xMidYMid meet">
<g transform="translate(0.000000,488.000000) scale(0.100000,-0.100000)"
fill="#3270EC" stroke="none">
<path d="M1090 4738 c-1 -2 -2 -129 -3 -283 -3 -256 -5 -292 -30 -415 -36
-187 -134 -486 -152 -468 -3 3 0 60 6 128 23 240 -21 510 -123 757 -31 76 -45
89 -75 68 -16 -12 -17 -17 -5 -47 39 -97 84 -240 103 -326 41 -192 35 -554
-12 -668 -12 -28 -12 -27 -20 31 -18 129 -32 203 -51 265 -47 153 -175 370
-218 370 -38 0 -31 -27 28 -118 111 -168 160 -324 169 -529 l6 -131 -50 -69
c-27 -37 -67 -98 -88 -135 -25 -43 -49 -71 -66 -78 -34 -15 -85 -67 -98 -103
-27 -70 5 -163 68 -199 24 -13 50 -44 75 -85 20 -35 67 -103 103 -151 l66 -87
-6 -115 c-10 -194 -70 -376 -173 -531 -57 -85 -63 -112 -28 -117 23 -3 73 62
137 178 69 127 127 334 127 456 0 55 11 69 29 35 21 -39 41 -210 41 -351 0
-211 -33 -389 -106 -573 -39 -97 -40 -120 -6 -125 19 -3 26 6 47 51 34 79 92
268 112 372 18 94 26 445 11 513 -15 66 12 29 50 -70 49 -126 85 -255 114
-413 18 -102 22 -160 23 -390 2 -255 3 -270 20 -270 30 0 37 47 37 265 1 214
-14 359 -53 530 -17 76 -60 225 -75 265 -4 9 37 -14 89 -49 53 -35 141 -87
197 -115 l100 -52 0 -39 c0 -135 65 -299 160 -402 190 -208 506 -241 737 -79
54 38 139 123 148 148 0 1 37 -9 80 -23 44 -13 148 -39 230 -56 242 -51 440
-42 652 28 484 162 849 594 947 1123 9 46 16 98 16 117 0 44 12 49 62 23 194
-99 389 -293 502 -500 152 -278 198 -700 116 -1055 -73 -315 -201 -557 -399
-755 -216 -215 -424 -301 -726 -302 -290 -1 -606 98 -980 307 -240 134 -349
173 -505 183 -73 4 -109 2 -153 -11 -144 -42 -256 -146 -345 -321 -41 -83 -84
-204 -76 -217 10 -15 39 34 68 113 57 159 185 321 298 377 149 73 307 47 582
-97 75 -39 196 -102 269 -140 229 -120 468 -202 675 -232 131 -18 356 -7 474
24 456 120 796 513 936 1082 32 130 44 241 44 400 -1 382 -98 667 -326 960
-91 117 -267 254 -433 338 -53 27 -63 44 -63 109 0 59 -39 243 -72 341 -163
489 -538 844 -1015 964 -95 24 -127 27 -263 27 -165 0 -288 -20 -496 -79 l-90
-26 -75 74 c-256 256 -686 213 -881 -87 -47 -73 -85 -189 -94 -290 l-7 -77
-69 -35 c-38 -19 -125 -73 -194 -119 -73 -49 -123 -78 -119 -68 44 116 98 374
116 553 12 123 7 446 -6 483 -6 13 -44 26 -45 15z m1020 -350 c158 -48 281
-186 311 -353 23 -122 -17 -262 -101 -358 -36 -40 -113 -100 -143 -110 -13 -4
33 -117 48 -117 22 0 137 84 184 136 62 67 116 176 136 269 19 88 18 142 0
230 -8 38 -15 75 -15 81 0 21 233 78 427 104 175 24 384 -16 578 -109 348
-168 614 -506 704 -896 158 -687 -228 -1399 -869 -1603 -226 -71 -437 -65
-756 24 l-91 26 15 47 c24 75 20 241 -7 321 -46 134 -126 239 -234 310 -34 22
-66 40 -72 40 -15 0 -61 -113 -48 -117 30 -10 107 -70 143 -110 51 -59 86
-132 101 -217 34 -185 -72 -385 -248 -469 -64 -30 -74 -32 -183 -32 -108 0
-119 2 -182 32 -197 93 -301 314 -242 512 8 29 14 55 12 56 -2 2 -28 15 -58
29 -39 18 -56 22 -58 13 -2 -6 -5 -18 -8 -25 -5 -17 -134 48 -265 136 -194
130 -352 287 -474 469 l-55 82 22 38 c29 49 31 141 5 195 l-19 37 54 83 c163
249 394 463 663 616 33 18 61 30 62 25 13 -34 21 -37 65 -20 73 29 72 27 53
92 -13 42 -16 82 -13 141 4 70 10 94 41 157 95 192 319 294 517 235z"/>
<path d="M1313 3420 c-35 -11 -83 -62 -83 -89 0 -32 44 -84 93 -109 91 -47
205 -26 233 44 11 26 10 36 -4 65 -34 67 -158 113 -239 89z"/>
<path d="M1358 2630 c-104 -31 -159 -123 -107 -179 28 -30 60 -41 120 -41 164
0 256 161 124 216 -37 15 -94 17 -137 4z"/>
</g>
</svg>
