<?xml version="1.0"?>
<svg xmlns="http://www.w3.org/2000/svg" xmlns:xlink="http://www.w3.org/1999/xlink" version="1.1" id="Capa_1" x="0px" y="0px" viewBox="0 0 512 512" style="enable-background:new 0 0 512 512;" xml:space="preserve" width="512px" height="512px"><g><g>
	<g>
		<path d="M256,104.991c-4.152,0-7.518,3.365-7.518,7.518v44.987c0,4.153,3.366,7.518,7.518,7.518c4.153,0,7.518-3.365,7.518-7.518    v-44.987C263.518,108.356,260.153,104.991,256,104.991z" data-original="#000000" class="active-path" data-old_color="#000000" fill="#3270EC"/>
	</g>
</g><g>
	<g>
		<path d="M256,346.985c-4.152,0-7.518,3.365-7.518,7.518v44.988c0,4.153,3.366,7.518,7.518,7.518c4.153,0,7.518-3.365,7.518-7.518    v-44.988C263.518,350.35,260.153,346.985,256,346.985z" data-original="#000000" class="active-path" data-old_color="#000000" fill="#3270EC"/>
	</g>
</g><g>
	<g>
		<path d="M219.252,165.329l-22.494-38.96c-2.076-3.596-6.675-4.827-10.27-2.752c-3.596,2.076-4.828,6.674-2.752,10.27l22.494,38.96    c1.392,2.412,3.92,3.76,6.518,3.76c1.275,0,2.569-0.325,3.752-1.008C220.096,173.523,221.328,168.925,219.252,165.329z" data-original="#000000" class="active-path" data-old_color="#000000" fill="#3270EC"/>
	</g>
</g><g>
	<g>
		<path d="M328.265,378.112l-22.493-38.96c-2.077-3.597-6.675-4.827-10.27-2.752c-3.596,2.076-4.828,6.674-2.752,10.27l22.493,38.96    c1.393,2.412,3.92,3.76,6.518,3.76c1.275,0,2.569-0.325,3.752-1.008C329.109,386.306,330.341,381.708,328.265,378.112z" data-original="#000000" class="active-path" data-old_color="#000000" fill="#3270EC"/>
	</g>
</g><g>
	<g>
		<path d="M325.512,123.618c-3.598-2.076-8.195-0.845-10.27,2.752l-22.493,38.96c-2.076,3.596-0.843,8.194,2.752,10.27    c1.185,0.684,2.477,1.008,3.752,1.008c2.598,0,5.126-1.348,6.518-3.76l22.493-38.96    C330.34,130.292,329.108,125.694,325.512,123.618z" data-original="#000000" class="active-path" data-old_color="#000000" fill="#3270EC"/>
	</g>
</g><g>
	<g>
		<path d="M216.5,336.401c-3.596-2.076-8.194-0.845-10.27,2.752l-22.494,38.96c-2.076,3.596-0.844,8.194,2.752,10.27    c1.184,0.684,2.477,1.008,3.752,1.008c2.598,0,5.126-1.348,6.518-3.76l22.494-38.96    C221.329,343.075,220.097,338.478,216.5,336.401z" data-original="#000000" class="active-path" data-old_color="#000000" fill="#3270EC"/>
	</g>
</g><g>
	<g>
		<path d="M357.75,290.485H84.918v-68.969h39.258c4.152,0,7.518-3.365,7.518-7.518s-3.366-7.518-7.518-7.518H84.918H12.531    C5.621,206.479,0,212.1,0,219.01v73.981c0,6.91,5.621,12.531,12.531,12.531h72.387H357.75c4.153,0,7.518-3.365,7.518-7.518    C365.268,293.85,361.903,290.485,357.75,290.485z M69.881,290.485H15.037v-68.969h54.844V290.485z" data-original="#000000" class="active-path" data-old_color="#000000" fill="#3270EC"/>
	</g>
</g><g>
	<g>
		<path d="M499.469,206.479h-72.387H170.54c-4.152,0-7.518,3.365-7.518,7.518s3.366,7.518,7.518,7.518h256.542v68.968h-21.715    c-4.153,0-7.518,3.365-7.518,7.518c0,4.153,3.365,7.518,7.518,7.518h21.715h72.387c6.91,0,12.531-5.621,12.531-12.531V219.01    C512,212.1,506.379,206.479,499.469,206.479z M496.963,290.485h-54.844v-68.969h54.844V290.485z" data-original="#000000" class="active-path" data-old_color="#000000" fill="#3270EC"/>
	</g>
</g></g> </svg>
