<?xml version="1.0"?>
<svg xmlns="http://www.w3.org/2000/svg" height="512px" viewBox="0 0 511 512" width="512px" class=""><g><path d="m502.546875 191.632812c-10.796875-10.796874-27.109375-12.796874-39.949219-6.007812l-62.558594-62.554688c6.769532-12.839843 4.761719-29.128906-6.027343-39.914062-13.253907-13.257812-34.824219-13.257812-48.082031 0-1.152344 1.152344-2.199219 2.371094-3.152344 3.640625-32.847656-52.105469-90.902344-86.796875-156.914063-86.796875-102.210937 0-185.363281 83.152344-185.363281 185.363281 0 81.535157 52.921875 150.945313 126.21875 175.683594v43.207031c0 5.519532 4.476562 10 10 10h1.574219v87.746094c0 5.523438 4.476562 10 10 10 5.523437 0 10-4.476562 10-10v-87.746094h55.140625v87.746094c0 5.523438 4.476562 10 10 10 5.519531 0 10-4.476562 10-10v-87.746094h1.574218c5.519532 0 10-4.480468 10-10v-43.207031c73.296876-24.738281 126.214844-94.148437 126.214844-175.683594 0-15.316406-1.878906-30.199219-5.398437-44.445312 1.375.167969 2.761719.261719 4.144531.261719 5.488281 0 10.976562-1.320313 15.945312-3.953126l62.539063 62.539063c-6.789063 12.84375-4.789063 29.152344 6.007813 39.949219 6.628906 6.628906 15.335937 9.941406 24.042968 9.941406 8.707032 0 17.414063-3.3125 24.042969-9.941406 13.253906-13.253906 13.253906-34.824219 0-48.082032zm-277.539063 202.621094h-78.289062v-27.703125c12.625 2.726563 25.714844 4.171875 39.144531 4.171875 13.425781 0 26.519531-1.445312 39.144531-4.171875zm-39.144531-43.527344c-91.183593 0-165.363281-74.183593-165.363281-165.363281 0-91.179687 74.179688-165.363281 165.363281-165.363281 68.125 0 126.75 41.410156 152.050781 100.382812l-23.875 19.421876c-6.671874-18.8125-17.503906-36.054688-32.035156-50.582032-19.90625-19.910156-45.042968-32.980468-72.6875-37.796875-27.015625-4.707031-54.460937-1.265625-79.363281 9.960938-5.035156 2.269531-7.277344 8.191406-5.007813 13.226562 2.269532 5.035157 8.191407 7.277344 13.226563 5.007813 43.679687-19.6875 95.796875-10.148438 129.6875 23.742187 14.140625 14.140625 24.171875 31.289063 29.511719 50l-45.558594 37.058594c-10.421875-6.972656-23.871094-7.570313-34.804688-1.789063l-27.367187-27.363281c6.789063-12.84375 4.789063-29.152343-6.007813-39.949219-13.253906-13.257812-34.824218-13.257812-48.082031 0-13.257812 13.257813-13.257812 34.828126 0 48.082032 6.628907 6.628906 15.335938 9.945312 24.042969 9.945312 5.472656 0 10.945312-1.316406 15.90625-3.9375l27.363281 27.367188c-6.789062 12.839844-4.789062 29.152344 6.007813 39.949218 6.628906 6.625 15.335937 9.941407 24.042968 9.941407 8.707032 0 17.414063-3.316407 24.042969-9.941407 9.925781-9.929687 12.417969-24.519531 7.476563-36.789062l37.003906-30.101562c.253906 3.152343.390625 6.328124.390625 9.527343 0 30.976563-12.0625 60.097657-33.964844 82-21.902343 21.902344-51.023437 33.964844-82 33.964844-30.976562 0-60.097656-12.0625-82-33.964844-34.085937-34.085937-43.523437-86.429687-23.488281-130.25 2.296875-5.023437.085938-10.957031-4.9375-13.253906s-10.957031-.085937-13.253906 4.9375c-11.410156 24.960937-14.980469 52.511719-10.320313 79.671875 4.769531 27.78125 17.859375 53.039062 37.855469 73.035156 25.679688 25.679688 59.824219 39.824219 96.144531 39.824219 36.316407 0 70.460938-14.144531 96.140625-39.824219 25.679688-25.679687 39.824219-59.824218 39.824219-96.140625 0-8.253906-.738281-16.394531-2.171875-24.351562l25.351562-20.621094c4.046876 14.304687 6.214844 29.390625 6.214844 44.972656.003906 91.179688-74.179687 165.363281-165.359375 165.363281zm37.152344-141.945312c2.730469-2.726562 6.3125-4.09375 9.898437-4.09375 3.585938 0 7.171876 1.367188 9.898438 4.09375 5.460938 5.460938 5.460938 14.339844 0 19.800781-5.457031 5.457031-14.335938 5.457031-19.796875 0-5.457031-5.460937-5.457031-14.339843 0-19.800781zm-73.320313-53.519531c-5.460937-5.460938-5.460937-14.339844 0-19.800781 2.726563-2.730469 6.3125-4.09375 9.898438-4.09375s7.167969 1.363281 9.898438 4.09375c5.457031 5.457031 5.457031 14.339843 0 19.800781-5.457032 5.457031-14.339844 5.457031-19.796876 0zm210.375-38.167969c-5.457031-5.457031-5.457031-14.339844 0-19.796875 2.730469-2.730469 6.316407-4.09375 9.898438-4.09375 3.585938 0 7.171875 1.363281 9.898438 4.09375 5.460937 5.457031 5.460937 14.339844 0 19.796875-5.457032 5.460938-14.335938 5.460938-19.796876 0zm128.332032 108.480469c-5.457032 5.457031-14.339844 5.457031-19.796875 0-5.460938-5.457031-5.460938-14.339844 0-19.800781 2.726562-2.726563 6.3125-4.09375 9.898437-4.09375 3.585938 0 7.167969 1.367187 9.898438 4.09375 5.460937 5.460937 5.460937 14.34375 0 19.800781zm0 0" data-original="#000000" class="active-path" data-old_color="#000000" fill="#3270EC"/></g> </svg>
