<?xml version="1.0" standalone="no"?>
<!DOCTYPE svg PUBLIC "-//W3C//DTD SVG 20010904//EN"
 "http://www.w3.org/TR/2001/REC-SVG-20010904/DTD/svg10.dtd">
<svg version="1.0" xmlns="http://www.w3.org/2000/svg"
 width="1280.000000pt" height="1280.000000pt" viewBox="0 0 1280.000000 1280.000000"
 preserveAspectRatio="xMidYMid meet">
<g transform="translate(0.000000,1280.000000) scale(0.100000,-0.100000)"
fill="#3270EC" stroke="none">
<path d="M6130 11394 c-25 -2 -101 -8 -170 -14 -912 -78 -1810 -421 -2555
-978 -135 -101 -283 -223 -379 -313 -622 -578 -1047 -1221 -1337 -2017 -230
-635 -329 -1370 -274 -2049 55 -675 226 -1289 525 -1878 265 -524 571 -935
1010 -1360 556 -539 1278 -957 2036 -1181 292 -86 601 -145 964 -185 155 -17
717 -18 885 -1 666 66 1240 230 1810 517 520 262 933 566 1351 995 726 744
1203 1719 1353 2766 38 268 46 384 46 704 -1 316 -7 413 -46 695 -132 957
-542 1849 -1204 2615 -41 47 -358 365 -420 421 -191 172 -505 407 -697 521
-331 196 -574 314 -878 428 -410 153 -762 237 -1220 290 -166 20 -673 35 -800
24z m575 -404 c1036 -76 1993 -477 2755 -1155 93 -82 368 -363 441 -450 652
-775 1018 -1682 1090 -2700 13 -183 7 -535 -11 -715 -13 -128 -56 -413 -75
-495 -8 -33 -22 -94 -31 -135 -56 -246 -153 -534 -263 -785 -323 -730 -809
-1345 -1441 -1824 -63 -48 -132 -97 -153 -110 -21 -13 -43 -28 -50 -35 -58
-59 -604 -355 -782 -424 -27 -11 -84 -33 -125 -49 -1087 -426 -2312 -415
-3405 32 -77 31 -151 63 -165 70 -14 7 -70 35 -125 61 -279 135 -574 323 -845
539 -157 125 -200 164 -385 350 -710 711 -1164 1636 -1295 2637 -155 1196 158
2394 878 3353 157 209 233 297 432 495 154 154 215 210 340 312 488 395 987
659 1615 851 262 81 656 152 965 176 166 12 473 13 635 1z"/>
<path d="M6547 8794 c-32 -10 -52 -23 -667 -432 -333 -222 -617 -416 -632
-432 -48 -52 -61 -160 -26 -222 19 -32 59 -71 92 -88 37 -19 142 -18 176 1 26
15 497 328 515 342 21 17 386 257 390 257 3 0 6 -965 7 -2143 l3 -2144 29 -41
c44 -64 88 -87 166 -87 77 1 133 30 171 92 l24 38 0 2360 c0 2193 -1 2362 -17
2395 -17 36 -46 65 -87 88 -25 15 -115 24 -144 16z"/>
</g>
</svg>
