<?xml version="1.0" standalone="no"?>
<!DOCTYPE svg PUBLIC "-//W3C//DTD SVG 20010904//EN"
 "http://www.w3.org/TR/2001/REC-SVG-20010904/DTD/svg10.dtd">
<svg version="1.0" xmlns="http://www.w3.org/2000/svg"
 width="1280.000000pt" height="1280.000000pt" viewBox="0 0 1280.000000 1280.000000"
 preserveAspectRatio="xMidYMid meet">
<g transform="translate(0.000000,1280.000000) scale(0.100000,-0.100000)"
fill="#3270EC" stroke="none">
<path d="M6065 11389 c-1151 -80 -2238 -552 -3080 -1338 -1167 -1089 -1747
-2693 -1545 -4276 289 -2270 2068 -4047 4339 -4335 2025 -256 4004 751 4999
2546 301 542 512 1198 586 1824 199 1668 -464 3339 -1754 4419 -909 762 -2061
1178 -3240 1169 -102 0 -239 -5 -305 -9z m635 -399 c995 -70 1899 -435 2675
-1081 143 -119 442 -422 567 -574 238 -292 405 -551 575 -888 334 -666 501
-1418 479 -2157 -19 -687 -171 -1303 -471 -1915 -405 -827 -1046 -1510 -1845
-1967 -1333 -762 -2962 -809 -4327 -125 -470 236 -828 494 -1198 862 -366 365
-635 735 -860 1185 -658 1313 -660 2826 -6 4130 232 461 497 827 866 1195 255
254 509 457 795 637 601 377 1283 612 1977 683 255 26 538 31 773 15z"/>
<path d="M6195 8985 c-455 -74 -838 -350 -1042 -751 -48 -96 -56 -119 -56
-168 0 -109 86 -196 194 -196 97 0 149 42 212 170 284 580 1040 740 1539 326
161 -134 285 -339 334 -551 26 -110 26 -320 1 -430 -22 -94 -77 -229 -124
-303 -18 -29 -524 -708 -1124 -1509 -600 -801 -1098 -1468 -1107 -1482 -12
-17 -17 -46 -17 -91 0 -88 33 -141 109 -176 l53 -24 1249 2 1249 3 38 24 c21
13 50 42 65 64 22 34 27 52 27 106 0 79 -25 128 -88 169 l-41 27 -1031 5
-1031 5 986 1316 c542 724 1004 1350 1028 1391 224 394 240 882 42 1293 -75
155 -142 248 -274 381 -207 207 -422 324 -704 384 -129 28 -363 35 -487 15z"/>
</g>
</svg>
